<?xml version="1.0" encoding="utf-8"?>
<!-- Generator: Adobe Illustrator 22.0.0, SVG Export Plug-In . SVG Version: 6.00 Build 0)  -->
<svg version="1.1" id="Layer_1" xmlns="http://www.w3.org/2000/svg" xmlns:xlink="http://www.w3.org/1999/xlink" x="0px" y="0px"
	 viewBox="0 0 17 17" style="enable-background:new 0 0 17 17;" xml:space="preserve">
<style type="text/css">
	.st0{fill:#496DAE;}
</style>
<g>
	<path class="st0" d="M6.5,0.4L3.6,0.7l-2.2,16h3l0.3-7.1l2.9-0.2l1.4,5.5l2.6-0.6L6.5,0.4L6.5,0.4z M4.8,7.9L5,3.7l0.9-0.2L7,7.9
		H4.8L4.8,7.9z"/>
	<polygon class="st0" points="13.1,11.2 12.7,2 15.6,1.3 13.1,11.2 	"/>
	<path class="st0" d="M12.7,12.6c0,0-0.4,0.2-0.4,0.8c0,0.6,0.2,1,0.7,1.1c0.5,0.1,0.9-0.5,1-1c0.1-0.5,0.1-0.9-0.2-1.1
		C13.5,12.3,13,12.3,12.7,12.6L12.7,12.6z"/>
</g>
</svg>
